{"glyphs":{"0":{"ha":868,"x_min":0,"x_max":694,"o":"m 174 0 l 174 174 l 521 174 l 521 0 l 174 0 m 0 174 l 0 694 l 174 694 l 174 174 l 0 174 m 521 174 l 521 694 l 694 694 l 694 174 l 521 174 m 174 694 l 174 868 l 521 868 l 521 694 l 174 694 z "},"1":{"ha":521,"x_min":0,"x_max":347,"o":"m 174 0 l 174 521 l 0 521 l 0 694 l 174 694 l 174 868 l 347 868 l 347 0 l 174 0 z "},"2":{"ha":868,"x_min":0,"x_max":694,"o":"m 0 0 l 0 174 l 174 174 l 174 347 l 347 347 l 347 174 l 694 174 l 694 0 l 0 0 m 347 347 l 347 521 l 521 521 l 521 347 l 347 347 m 0 521 l 0 694 l 174 694 l 174 521 l 0 521 m 521 521 l 521 694 l 694 694 l 694 521 l 521 521 m 174 694 l 174 868 l 521 868 l 521 694 l 174 694 z "},"3":{"ha":868,"x_min":0,"x_max":694,"o":"m 174 0 l 174 174 l 521 174 l 521 0 l 174 0 m 0 174 l 0 347 l 174 347 l 174 174 l 0 174 m 0 521 l 0 694 l 174 694 l 174 521 l 0 521 m 521 174 l 521 347 l 347 347 l 347 521 l 521 521 l 521 694 l 694 694 l 694 174 l 521 174 m 174 694 l 174 868 l 521 868 l 521 694 l 174 694 z "},"4":{"ha":868,"x_min":0,"x_max":694,"o":"m 347 0 l 347 174 l 0 174 l 0 521 l 174 521 l 174 347 l 347 347 l 347 521 l 174 521 l 174 694 l 347 694 l 347 868 l 521 868 l 521 347 l 694 347 l 694 174 l 521 174 l 521 0 l 347 0 z "},"5":{"ha":868,"x_min":0,"x_max":694,"o":"m 0 0 l 0 174 l 521 174 l 521 0 l 0 0 m 521 174 l 521 347 l 694 347 l 694 174 l 521 174 m 0 347 l 0 868 l 694 868 l 694 694 l 174 694 l 174 521 l 521 521 l 521 347 l 0 347 z "},"6":{"ha":868,"x_min":0,"x_max":694,"o":"m 174 0 l 174 174 l 521 174 l 521 0 l 174 0 m 521 174 l 521 347 l 694 347 l 694 174 l 521 174 m 0 174 l 0 694 l 174 694 l 174 521 l 521 521 l 521 347 l 174 347 l 174 174 l 0 174 m 174 694 l 174 868 l 521 868 l 521 694 l 174 694 z "},"7":{"ha":868,"x_min":0,"x_max":694,"o":"m 0 0 l 0 174 l 174 174 l 174 0 l 0 0 m 174 174 l 174 347 l 347 347 l 347 174 l 174 174 m 347 347 l 347 521 l 521 521 l 521 347 l 347 347 m 521 521 l 521 694 l 0 694 l 0 868 l 694 868 l 694 521 l 521 521 z "},"8":{"ha":868,"x_min":0,"x_max":694,"o":"m 174 0 l 174 174 l 521 174 l 521 0 l 174 0 m 0 174 l 0 347 l 174 347 l 174 174 l 0 174 m 521 174 l 521 347 l 694 347 l 694 174 l 521 174 m 174 347 l 174 521 l 521 521 l 521 347 l 174 347 m 0 521 l 0 694 l 174 694 l 174 521 l 0 521 m 521 521 l 521 694 l 694 694 l 694 521 l 521 521 m 174 694 l 174 868 l 521 868 l 521 694 l 174 694 z "},"9":{"ha":868,"x_min":0,"x_max":694,"o":"m 174 0 l 174 174 l 347 174 l 347 0 l 174 0 m 0 521 l 0 694 l 174 694 l 174 521 l 0 521 m 347 174 l 347 347 l 174 347 l 174 521 l 521 521 l 521 694 l 694 694 l 694 347 l 521 347 l 521 174 l 347 174 m 174 694 l 174 868 l 521 868 l 521 694 l 174 694 z "},"\u0000":{"ha":0,"x_min":0,"x_max":0,"o":""},"\r":{"ha":0,"x_min":0,"x_max":0,"o":""}," ":{"ha":347,"x_min":0,"x_max":0,"o":""},"!":{"ha":347,"x_min":0,"x_max":174,"o":"m 0 0 l 0 174 l 174 174 l 174 0 l 0 0 m 0 347 l 0 868 l 174 868 l 174 347 l 0 347 z "},"\"":{"ha":694,"x_min":0,"x_max":521,"o":"m 0 521 l 0 868 l 174 868 l 174 521 l 0 521 m 347 521 l 347 868 l 521 868 l 521 521 l 347 521 z "},"#":{"ha":1215,"x_min":-174,"x_max":1042,"o":"m 694 347 l 694 521 l 347 521 l 347 347 l 694 347 m 0 0 l 0 174 l -174 174 l -174 347 l 174 347 l 174 521 l 0 521 l 0 694 l 347 694 l 347 868 l 521 868 l 521 694 l 868 694 l 868 868 l 1042 868 l 1042 521 l 868 521 l 868 347 l 1042 347 l 1042 174 l 694 174 l 694 0 l 521 0 l 521 174 l 174 174 l 174 0 l 0 0 z "},"$":{"ha":868,"x_min":0,"x_max":694,"o":"m 0 521 l 0 694 l 174 694 l 174 521 l 0 521 m 0 0 l 0 174 l 347 174 l 347 347 l 174 347 l 174 521 l 347 521 l 347 694 l 174 694 l 174 868 l 694 868 l 694 694 l 521 694 l 521 347 l 694 347 l 694 174 l 521 174 l 521 0 l 0 0 z "},"%":{"ha":1042,"x_min":0,"x_max":868,"o":"m 0 0 l 0 174 l 174 174 l 174 0 l 0 0 m 174 174 l 174 347 l 347 347 l 347 174 l 174 174 m 521 0 l 521 347 l 868 347 l 868 0 l 521 0 m 347 347 l 347 521 l 521 521 l 521 347 l 347 347 m 521 521 l 521 694 l 694 694 l 694 521 l 521 521 m 0 521 l 0 868 l 347 868 l 347 521 l 0 521 m 694 694 l 694 868 l 868 868 l 868 694 l 694 694 z "},"&":{"ha":1042,"x_min":0,"x_max":868,"o":"m 694 0 l 694 174 l 868 174 l 868 0 l 694 0 m 0 174 l 0 347 l 174 347 l 174 174 l 0 174 m 174 0 l 174 174 l 347 174 l 347 347 l 174 347 l 174 521 l 521 521 l 521 347 l 694 347 l 694 174 l 521 174 l 521 0 l 174 0 m 0 521 l 0 694 l 174 694 l 174 521 l 0 521 m 521 521 l 521 694 l 694 694 l 694 521 l 521 521 m 174 694 l 174 868 l 521 868 l 521 694 l 174 694 z "},"'":{"ha":347,"x_min":0,"x_max":174,"o":"m 0 521 l 0 868 l 174 868 l 174 521 l 0 521 z "},"(":{"ha":521,"x_min":0,"x_max":347,"o":"m 174 -174 l 174 0 l 347 0 l 347 -174 l 174 -174 m 0 0 l 0 694 l 174 694 l 174 0 l 0 0 m 174 694 l 174 868 l 347 868 l 347 694 l 174 694 z "},")":{"ha":521,"x_min":0,"x_max":347,"o":"m 0 -174 l 0 0 l 174 0 l 174 -174 l 0 -174 m 174 0 l 174 694 l 347 694 l 347 0 l 174 0 m 0 694 l 0 868 l 174 868 l 174 694 l 0 694 z "},"*":{"ha":1042,"x_min":0,"x_max":868,"o":"m 0 0 l 0 174 l 174 174 l 174 0 l 0 0 m 694 0 l 694 174 l 868 174 l 868 0 l 694 0 m 0 694 l 0 868 l 174 868 l 174 694 l 0 694 m 347 0 l 347 174 l 174 174 l 174 347 l 0 347 l 0 521 l 174 521 l 174 694 l 347 694 l 347 868 l 521 868 l 521 694 l 694 694 l 694 521 l 868 521 l 868 347 l 694 347 l 694 174 l 521 174 l 521 0 l 347 0 m 694 694 l 694 868 l 868 868 l 868 694 l 694 694 z "},"+":{"ha":694,"x_min":0,"x_max":521,"o":"m 174 174 l 174 347 l 0 347 l 0 521 l 174 521 l 174 694 l 347 694 l 347 521 l 521 521 l 521 347 l 347 347 l 347 174 l 174 174 z "},",":{"ha":521,"x_min":0,"x_max":347,"o":"m 0 -174 l 0 0 l 174 0 l 174 -174 l 0 -174 m 174 0 l 174 174 l 347 174 l 347 0 l 174 0 z "},"-":{"ha":694,"x_min":0,"x_max":521,"o":"m 0 347 l 0 521 l 521 521 l 521 347 l 0 347 z "},".":{"ha":347,"x_min":0,"x_max":174,"o":"m 0 0 l 0 174 l 174 174 l 174 0 l 0 0 z "},"/":{"ha":694,"x_min":0,"x_max":521,"o":"m 0 0 l 0 347 l 174 347 l 174 0 l 0 0 m 174 347 l 174 694 l 347 694 l 347 347 l 174 347 m 347 694 l 347 868 l 521 868 l 521 694 l 347 694 z "},":":{"ha":347,"x_min":0,"x_max":174,"o":"m 0 0 l 0 174 l 174 174 l 174 0 l 0 0 m 0 521 l 0 694 l 174 694 l 174 521 l 0 521 z "},";":{"ha":521,"x_min":0,"x_max":347,"o":"m 0 -174 l 0 0 l 174 0 l 174 -174 l 0 -174 m 174 0 l 174 174 l 347 174 l 347 0 l 174 0 m 174 521 l 174 694 l 347 694 l 347 521 l 174 521 z "},"<":{"ha":694,"x_min":0,"x_max":521,"o":"m 347 0 l 347 174 l 521 174 l 521 0 l 347 0 m 174 174 l 174 347 l 347 347 l 347 174 l 174 174 m 0 347 l 0 521 l 174 521 l 174 347 l 0 347 m 174 521 l 174 694 l 347 694 l 347 521 l 174 521 m 347 694 l 347 868 l 521 868 l 521 694 l 347 694 z "},"=":{"ha":694,"x_min":0,"x_max":521,"o":"m 0 174 l 0 347 l 521 347 l 521 174 l 0 174 m 0 521 l 0 694 l 521 694 l 521 521 l 0 521 z "},">":{"ha":694,"x_min":0,"x_max":521,"o":"m 0 0 l 0 174 l 174 174 l 174 0 l 0 0 m 174 174 l 174 347 l 347 347 l 347 174 l 174 174 m 347 347 l 347 521 l 521 521 l 521 347 l 347 347 m 174 521 l 174 694 l 347 694 l 347 521 l 174 521 m 0 694 l 0 868 l 174 868 l 174 694 l 0 694 z "},"?":{"ha":868,"x_min":0,"x_max":694,"o":"m 347 0 l 347 174 l 521 174 l 521 0 l 347 0 m 347 347 l 347 521 l 521 521 l 521 347 l 347 347 m 0 521 l 0 694 l 174 694 l 174 521 l 0 521 m 521 521 l 521 694 l 694 694 l 694 521 l 521 521 m 174 694 l 174 868 l 521 868 l 521 694 l 174 694 z "},"@":{"ha":1215,"x_min":0,"x_max":1042,"o":"m 347 -174 l 347 0 l 521 0 l 521 -174 l 347 -174 m 174 0 l 174 174 l 347 174 l 347 0 l 174 0 m 694 0 l 694 174 l 868 174 l 868 0 l 694 0 m 0 174 l 0 521 l 174 521 l 174 174 l 0 174 m 347 174 l 347 521 l 694 521 l 694 174 l 347 174 m 868 174 l 868 521 l 1042 521 l 1042 174 l 868 174 m 174 521 l 174 694 l 347 694 l 347 521 l 174 521 m 694 521 l 694 694 l 868 694 l 868 521 l 694 521 m 347 694 l 347 868 l 694 868 l 694 694 l 347 694 z "},"A":{"ha":1042,"x_min":0,"x_max":868,"o":"m 0 0 l 0 347 l 174 347 l 174 0 l 0 0 m 694 0 l 694 347 l 868 347 l 868 0 l 694 0 m 174 347 l 174 694 l 347 694 l 347 521 l 521 521 l 521 694 l 694 694 l 694 347 l 174 347 m 347 694 l 347 868 l 521 868 l 521 694 l 347 694 z "},"B":{"ha":868,"x_min":0,"x_max":694,"o":"m 521 174 l 521 347 l 694 347 l 694 174 l 521 174 m 521 521 l 521 694 l 694 694 l 694 521 l 521 521 m 0 0 l 0 868 l 521 868 l 521 694 l 174 694 l 174 521 l 521 521 l 521 347 l 174 347 l 174 174 l 521 174 l 521 0 l 0 0 z "},"C":{"ha":868,"x_min":0,"x_max":694,"o":"m 174 0 l 174 174 l 521 174 l 521 0 l 174 0 m 521 174 l 521 347 l 694 347 l 694 174 l 521 174 m 0 174 l 0 694 l 174 694 l 174 174 l 0 174 m 521 521 l 521 694 l 694 694 l 694 521 l 521 521 m 174 694 l 174 868 l 521 868 l 521 694 l 174 694 z "},"D":{"ha":868,"x_min":0,"x_max":694,"o":"m 521 174 l 521 694 l 694 694 l 694 174 l 521 174 m 0 0 l 0 868 l 521 868 l 521 694 l 174 694 l 174 174 l 521 174 l 521 0 l 0 0 z "},"E":{"ha":868,"x_min":0,"x_max":694,"o":"m 0 0 l 0 868 l 694 868 l 694 694 l 174 694 l 174 521 l 521 521 l 521 347 l 174 347 l 174 174 l 694 174 l 694 0 l 0 0 z "},"F":{"ha":868,"x_min":0,"x_max":694,"o":"m 0 0 l 0 868 l 694 868 l 694 694 l 174 694 l 174 521 l 521 521 l 521 347 l 174 347 l 174 0 l 0 0 z "},"G":{"ha":868,"x_min":0,"x_max":694,"o":"m 174 0 l 174 174 l 521 174 l 521 347 l 347 347 l 347 521 l 694 521 l 694 0 l 174 0 m 0 174 l 0 694 l 174 694 l 174 174 l 0 174 m 174 694 l 174 868 l 694 868 l 694 694 l 174 694 z "},"H":{"ha":868,"x_min":0,"x_max":694,"o":"m 0 0 l 0 868 l 174 868 l 174 521 l 521 521 l 521 868 l 694 868 l 694 0 l 521 0 l 521 347 l 174 347 l 174 0 l 0 0 z "},"I":{"ha":347,"x_min":0,"x_max":174,"o":"m 0 0 l 0 868 l 174 868 l 174 0 l 0 0 z "},"J":{"ha":868,"x_min":0,"x_max":694,"o":"m 174 0 l 174 174 l 521 174 l 521 0 l 174 0 m 0 174 l 0 347 l 174 347 l 174 174 l 0 174 m 521 174 l 521 694 l 174 694 l 174 868 l 694 868 l 694 174 l 521 174 z "},"K":{"ha":868,"x_min":0,"x_max":694,"o":"m 521 0 l 521 174 l 694 174 l 694 0 l 521 0 m 347 174 l 347 347 l 521 347 l 521 174 l 347 174 m 347 521 l 347 694 l 521 694 l 521 521 l 347 521 m 0 0 l 0 868 l 174 868 l 174 521 l 347 521 l 347 347 l 174 347 l 174 0 l 0 0 m 521 694 l 521 868 l 694 868 l 694 694 l 521 694 z "},"L":{"ha":868,"x_min":0,"x_max":694,"o":"m 0 0 l 0 868 l 174 868 l 174 174 l 694 174 l 694 0 l 0 0 z "},"M":{"ha":1042,"x_min":0,"x_max":868,"o":"m 347 0 l 347 521 l 521 521 l 521 0 l 347 0 m 0 0 l 0 868 l 174 868 l 174 694 l 347 694 l 347 521 l 174 521 l 174 0 l 0 0 m 694 0 l 694 521 l 521 521 l 521 694 l 694 694 l 694 868 l 868 868 l 868 0 l 694 0 z "},"N":{"ha":1042,"x_min":0,"x_max":868,"o":"m 347 347 l 347 521 l 521 521 l 521 347 l 347 347 m 0 0 l 0 868 l 174 868 l 174 694 l 347 694 l 347 521 l 174 521 l 174 0 l 0 0 m 694 0 l 694 174 l 521 174 l 521 347 l 694 347 l 694 868 l 868 868 l 868 0 l 694 0 z "},"O":{"ha":868,"x_min":0,"x_max":694,"o":"m 174 0 l 174 174 l 521 174 l 521 0 l 174 0 m 0 174 l 0 694 l 174 694 l 174 174 l 0 174 m 521 174 l 521 694 l 694 694 l 694 174 l 521 174 m 174 694 l 174 868 l 521 868 l 521 694 l 174 694 z "},"P":{"ha":868,"x_min":0,"x_max":694,"o":"m 521 347 l 521 694 l 694 694 l 694 347 l 521 347 m 0 0 l 0 868 l 521 868 l 521 694 l 174 694 l 174 347 l 521 347 l 521 174 l 174 174 l 174 0 l 0 0 z "},"Q":{"ha":868,"x_min":0,"x_max":694,"o":"m 0 174 l 0 694 l 174 694 l 174 174 l 0 174 m 174 0 l 174 174 l 347 174 l 347 347 l 521 347 l 521 694 l 694 694 l 694 174 l 521 174 l 521 0 l 174 0 m 174 694 l 174 868 l 521 868 l 521 694 l 174 694 z "},"R":{"ha":868,"x_min":0,"x_max":694,"o":"m 521 0 l 521 174 l 694 174 l 694 0 l 521 0 m 521 347 l 521 694 l 694 694 l 694 347 l 521 347 m 0 0 l 0 868 l 521 868 l 521 694 l 174 694 l 174 347 l 521 347 l 521 174 l 174 174 l 174 0 l 0 0 z "},"S":{"ha":868,"x_min":0,"x_max":694,"o":"m 0 0 l 0 174 l 521 174 l 521 0 l 0 0 m 521 174 l 521 347 l 0 347 l 0 694 l 174 694 l 174 521 l 694 521 l 694 174 l 521 174 m 174 694 l 174 868 l 694 868 l 694 694 l 174 694 z "},"T":{"ha":1042,"x_min":0,"x_max":868,"o":"m 347 0 l 347 694 l 0 694 l 0 868 l 868 868 l 868 694 l 521 694 l 521 0 l 347 0 z "},"U":{"ha":868,"x_min":0,"x_max":694,"o":"m 0 174 l 0 868 l 174 868 l 174 174 l 0 174 m 174 0 l 174 174 l 521 174 l 521 868 l 694 868 l 694 0 l 174 0 z "},"V":{"ha":1042,"x_min":0,"x_max":868,"o":"m 347 0 l 347 174 l 521 174 l 521 0 l 347 0 m 174 174 l 174 521 l 347 521 l 347 174 l 174 174 m 521 174 l 521 521 l 694 521 l 694 174 l 521 174 m 0 521 l 0 868 l 174 868 l 174 521 l 0 521 m 694 521 l 694 868 l 868 868 l 868 521 l 694 521 z "},"W":{"ha":1042,"x_min":0,"x_max":868,"o":"m 174 0 l 174 347 l 347 347 l 347 0 l 174 0 m 521 0 l 521 347 l 694 347 l 694 0 l 521 0 m 347 347 l 347 694 l 521 694 l 521 347 l 347 347 m 0 347 l 0 868 l 174 868 l 174 347 l 0 347 m 694 347 l 694 868 l 868 868 l 868 347 l 694 347 z "},"X":{"ha":1042,"x_min":0,"x_max":868,"o":"m 0 0 l 0 174 l 174 174 l 174 0 l 0 0 m 694 0 l 694 174 l 868 174 l 868 0 l 694 0 m 174 174 l 174 347 l 347 347 l 347 174 l 174 174 m 521 174 l 521 347 l 694 347 l 694 174 l 521 174 m 347 347 l 347 521 l 521 521 l 521 347 l 347 347 m 174 521 l 174 694 l 347 694 l 347 521 l 174 521 m 521 521 l 521 694 l 694 694 l 694 521 l 521 521 m 0 694 l 0 868 l 174 868 l 174 694 l 0 694 m 694 694 l 694 868 l 868 868 l 868 694 l 694 694 z "},"Y":{"ha":1042,"x_min":0,"x_max":868,"o":"m 174 0 l 174 174 l 347 174 l 347 0 l 174 0 m 174 521 l 174 694 l 347 694 l 347 521 l 174 521 m 347 174 l 347 521 l 521 521 l 521 694 l 694 694 l 694 347 l 521 347 l 521 174 l 347 174 m 0 694 l 0 868 l 174 868 l 174 694 l 0 694 m 694 694 l 694 868 l 868 868 l 868 694 l 694 694 z "},"Z":{"ha":868,"x_min":0,"x_max":694,"o":"m 0 0 l 0 174 l 174 174 l 174 347 l 347 347 l 347 174 l 694 174 l 694 0 l 0 0 m 347 347 l 347 521 l 521 521 l 521 347 l 347 347 m 521 521 l 521 694 l 0 694 l 0 868 l 694 868 l 694 521 l 521 521 z "},"[":{"ha":521,"x_min":0,"x_max":347,"o":"m 0 -174 l 0 868 l 347 868 l 347 694 l 174 694 l 174 0 l 347 0 l 347 -174 l 0 -174 z "},"\\":{"ha":694,"x_min":0,"x_max":521,"o":"m 347 0 l 347 174 l 521 174 l 521 0 l 347 0 m 174 174 l 174 521 l 347 521 l 347 174 l 174 174 m 0 521 l 0 868 l 174 868 l 174 521 l 0 521 z "},"]":{"ha":521,"x_min":0,"x_max":347,"o":"m 0 -174 l 0 0 l 174 0 l 174 694 l 0 694 l 0 868 l 347 868 l 347 -174 l 0 -174 z "},"^":{"ha":694,"x_min":0,"x_max":521,"o":"m 0 347 l 0 694 l 174 694 l 174 347 l 0 347 m 347 347 l 347 694 l 521 694 l 521 347 l 347 347 m 174 694 l 174 868 l 347 868 l 347 694 l 174 694 z "},"_":{"ha":868,"x_min":0,"x_max":694,"o":"m 0 -174 l 0 0 l 694 0 l 694 -174 l 0 -174 z "},"`":{"ha":694,"x_min":174,"x_max":521,"o":"m 347 521 l 347 694 l 521 694 l 521 521 l 347 521 m 174 694 l 174 868 l 347 868 l 347 694 l 174 694 z "},"a":{"ha":868,"x_min":0,"x_max":694,"o":"m 0 174 l 0 521 l 174 521 l 174 174 l 0 174 m 174 0 l 174 174 l 521 174 l 521 521 l 174 521 l 174 694 l 694 694 l 694 0 l 174 0 z "},"b":{"ha":868,"x_min":0,"x_max":694,"o":"m 521 174 l 521 521 l 694 521 l 694 174 l 521 174 m 0 0 l 0 868 l 174 868 l 174 694 l 521 694 l 521 521 l 174 521 l 174 174 l 521 174 l 521 0 l 0 0 z "},"c":{"ha":868,"x_min":0,"x_max":694,"o":"m 174 0 l 174 174 l 694 174 l 694 0 l 174 0 m 0 174 l 0 521 l 174 521 l 174 174 l 0 174 m 174 521 l 174 694 l 694 694 l 694 521 l 174 521 z "},"d":{"ha":868,"x_min":0,"x_max":694,"o":"m 0 174 l 0 521 l 174 521 l 174 174 l 0 174 m 174 0 l 174 174 l 521 174 l 521 521 l 174 521 l 174 694 l 521 694 l 521 868 l 694 868 l 694 0 l 174 0 z "},"e":{"ha":868,"x_min":0,"x_max":694,"o":"m 174 0 l 174 174 l 521 174 l 521 0 l 174 0 m 0 174 l 0 521 l 174 521 l 174 694 l 521 694 l 521 521 l 694 521 l 694 347 l 174 347 l 174 174 l 0 174 z "},"f":{"ha":868,"x_min":0,"x_max":694,"o":"m 0 0 l 0 694 l 174 694 l 174 347 l 521 347 l 521 174 l 174 174 l 174 0 l 0 0 m 521 521 l 521 694 l 694 694 l 694 521 l 521 521 m 174 694 l 174 868 l 521 868 l 521 694 l 174 694 z "},"g":{"ha":868,"x_min":0,"x_max":694,"o":"m 174 -347 l 174 -174 l 521 -174 l 521 -347 l 174 -347 m 0 -174 l 0 0 l 174 0 l 174 -174 l 0 -174 m 0 174 l 0 521 l 174 521 l 174 174 l 0 174 m 521 -174 l 521 0 l 174 0 l 174 174 l 521 174 l 521 521 l 174 521 l 174 694 l 694 694 l 694 -174 l 521 -174 z "},"h":{"ha":868,"x_min":0,"x_max":694,"o":"m 521 0 l 521 521 l 694 521 l 694 0 l 521 0 m 0 0 l 0 868 l 174 868 l 174 694 l 521 694 l 521 521 l 174 521 l 174 0 l 0 0 z "},"i":{"ha":521,"x_min":0,"x_max":347,"o":"m 174 0 l 174 174 l 347 174 l 347 0 l 174 0 m 0 174 l 0 694 l 174 694 l 174 174 l 0 174 m 0 868 l 0 1042 l 174 1042 l 174 868 l 0 868 z "},"j":{"ha":694,"x_min":0,"x_max":521,"o":"m 174 -174 l 174 0 l 347 0 l 347 -174 l 174 -174 m 0 0 l 0 174 l 174 174 l 174 0 l 0 0 m 347 0 l 347 694 l 521 694 l 521 0 l 347 0 m 347 868 l 347 1042 l 521 1042 l 521 868 l 347 868 z "},"k":{"ha":868,"x_min":0,"x_max":694,"o":"m 347 0 l 347 174 l 694 174 l 694 0 l 347 0 m 347 347 l 347 521 l 521 521 l 521 347 l 347 347 m 521 521 l 521 694 l 694 694 l 694 521 l 521 521 m 0 0 l 0 868 l 174 868 l 174 347 l 347 347 l 347 174 l 174 174 l 174 0 l 0 0 z "},"l":{"ha":694,"x_min":0,"x_max":521,"o":"m 174 0 l 174 174 l 347 174 l 347 0 l 174 0 m 347 174 l 347 347 l 521 347 l 521 174 l 347 174 m 0 174 l 0 868 l 174 868 l 174 174 l 0 174 z "},"m":{"ha":1042,"x_min":0,"x_max":868,"o":"m 347 0 l 347 521 l 521 521 l 521 0 l 347 0 m 0 0 l 0 694 l 347 694 l 347 521 l 174 521 l 174 0 l 0 0 m 694 0 l 694 521 l 521 521 l 521 694 l 868 694 l 868 0 l 694 0 z "},"n":{"ha":868,"x_min":0,"x_max":694,"o":"m 521 0 l 521 521 l 694 521 l 694 0 l 521 0 m 0 0 l 0 694 l 521 694 l 521 521 l 174 521 l 174 0 l 0 0 z "},"o":{"ha":868,"x_min":0,"x_max":694,"o":"m 174 0 l 174 174 l 521 174 l 521 0 l 174 0 m 0 174 l 0 521 l 174 521 l 174 174 l 0 174 m 521 174 l 521 521 l 694 521 l 694 174 l 521 174 m 174 521 l 174 694 l 521 694 l 521 521 l 174 521 z "},"p":{"ha":868,"x_min":0,"x_max":694,"o":"m 521 174 l 521 521 l 694 521 l 694 174 l 521 174 m 0 -347 l 0 694 l 521 694 l 521 521 l 174 521 l 174 174 l 521 174 l 521 0 l 174 0 l 174 -347 l 0 -347 z "},"q":{"ha":1042,"x_min":0,"x_max":868,"o":"m 0 174 l 0 521 l 174 521 l 174 174 l 0 174 m 521 -347 l 521 0 l 174 0 l 174 174 l 521 174 l 521 521 l 174 521 l 174 694 l 694 694 l 694 -174 l 868 -174 l 868 -347 l 521 -347 z "},"r":{"ha":694,"x_min":0,"x_max":521,"o":"m 0 0 l 0 694 l 174 694 l 174 521 l 347 521 l 347 347 l 174 347 l 174 0 l 0 0 m 347 521 l 347 694 l 521 694 l 521 521 l 347 521 z "},"s":{"ha":868,"x_min":0,"x_max":694,"o":"m 0 0 l 0 174 l 521 174 l 521 0 l 0 0 m 521 174 l 521 347 l 694 347 l 694 174 l 521 174 m 0 347 l 0 521 l 174 521 l 174 694 l 694 694 l 694 521 l 521 521 l 521 347 l 0 347 z "},"t":{"ha":694,"x_min":0,"x_max":521,"o":"m 174 0 l 174 174 l 521 174 l 521 0 l 174 0 m 0 174 l 0 868 l 174 868 l 174 694 l 521 694 l 521 521 l 174 521 l 174 174 l 0 174 z "},"u":{"ha":868,"x_min":0,"x_max":694,"o":"m 0 174 l 0 694 l 174 694 l 174 174 l 0 174 m 174 0 l 174 174 l 521 174 l 521 694 l 694 694 l 694 0 l 174 0 z "},"v":{"ha":1042,"x_min":0,"x_max":868,"o":"m 347 0 l 347 174 l 521 174 l 521 0 l 347 0 m 174 174 l 174 347 l 347 347 l 347 174 l 174 174 m 521 174 l 521 347 l 694 347 l 694 174 l 521 174 m 0 347 l 0 694 l 174 694 l 174 347 l 0 347 m 694 347 l 694 694 l 868 694 l 868 347 l 694 347 z "},"w":{"ha":1042,"x_min":0,"x_max":868,"o":"m 174 0 l 174 174 l 347 174 l 347 0 l 174 0 m 521 0 l 521 174 l 694 174 l 694 0 l 521 0 m 347 174 l 347 521 l 521 521 l 521 174 l 347 174 m 0 174 l 0 694 l 174 694 l 174 174 l 0 174 m 694 174 l 694 694 l 868 694 l 868 174 l 694 174 z "},"x":{"ha":868,"x_min":0,"x_max":694,"o":"m 0 0 l 0 174 l 174 174 l 174 0 l 0 0 m 521 0 l 521 174 l 694 174 l 694 0 l 521 0 m 174 174 l 174 521 l 521 521 l 521 174 l 174 174 m 0 521 l 0 694 l 174 694 l 174 521 l 0 521 m 521 521 l 521 694 l 694 694 l 694 521 l 521 521 z "},"y":{"ha":868,"x_min":0,"x_max":694,"o":"m 0 -174 l 0 0 l 174 0 l 174 -174 l 0 -174 m 0 174 l 0 694 l 174 694 l 174 174 l 0 174 m 174 -347 l 174 -174 l 521 -174 l 521 0 l 174 0 l 174 174 l 521 174 l 521 694 l 694 694 l 694 -347 l 174 -347 z "},"z":{"ha":868,"x_min":0,"x_max":694,"o":"m 0 0 l 0 174 l 174 174 l 174 347 l 347 347 l 347 174 l 694 174 l 694 0 l 0 0 m 347 347 l 347 521 l 0 521 l 0 694 l 694 694 l 694 521 l 521 521 l 521 347 l 347 347 z "},"{":{"ha":694,"x_min":0,"x_max":521,"o":"m 347 -174 l 347 0 l 521 0 l 521 -174 l 347 -174 m 174 0 l 174 347 l 0 347 l 0 521 l 174 521 l 174 694 l 347 694 l 347 0 l 174 0 m 347 694 l 347 868 l 521 868 l 521 694 l 347 694 z "},"|":{"ha":347,"x_min":0,"x_max":174,"o":"m 0 0 l 0 868 l 174 868 l 174 0 l 0 0 z "},"}":{"ha":694,"x_min":0,"x_max":521,"o":"m 0 -174 l 0 0 l 174 0 l 174 -174 l 0 -174 m 174 0 l 174 694 l 347 694 l 347 521 l 521 521 l 521 347 l 347 347 l 347 0 l 174 0 m 0 694 l 0 868 l 174 868 l 174 694 l 0 694 z "},"~":{"ha":868,"x_min":0,"x_max":694,"o":"m 0 347 l 0 521 l 174 521 l 174 347 l 0 347 m 347 347 l 347 521 l 521 521 l 521 347 l 347 347 m 174 521 l 174 694 l 347 694 l 347 521 l 174 521 m 521 521 l 521 694 l 694 694 l 694 521 l 521 521 z "},"‘":{"ha":521,"x_min":0,"x_max":347,"o":"m 0 521 l 0 694 l 174 694 l 174 521 l 0 521 m 174 694 l 174 868 l 347 868 l 347 694 l 174 694 z "},"’":{"ha":521,"x_min":0,"x_max":347,"o":"m 174 521 l 174 694 l 347 694 l 347 521 l 174 521 m 0 694 l 0 868 l 174 868 l 174 694 l 0 694 z "},"“":{"ha":868,"x_min":0,"x_max":694,"o":"m 0 521 l 0 694 l 174 694 l 174 521 l 0 521 m 347 521 l 347 694 l 521 694 l 521 521 l 347 521 m 174 694 l 174 868 l 347 868 l 347 694 l 174 694 m 521 694 l 521 868 l 694 868 l 694 694 l 521 694 z "},"”":{"ha":868,"x_min":0,"x_max":694,"o":"m 174 521 l 174 694 l 347 694 l 347 521 l 174 521 m 521 521 l 521 694 l 694 694 l 694 521 l 521 521 m 0 694 l 0 868 l 174 868 l 174 694 l 0 694 m 347 694 l 347 868 l 521 868 l 521 694 l 347 694 z "}}}
